<?xml version="1.0" encoding="UTF-8"?>
<svg id="Camada_2" data-name="Camada 2" xmlns="http://www.w3.org/2000/svg" viewBox="0 0 522.9 165.1">
  <defs>
    <style>
      .cls-1 {
        fill: #0e639c;
        stroke-width: 0px;
      }
    </style>
  </defs>
  <g id="Camada_1-2" data-name="Camada 1">
    <g>
      <path class="cls-1" d="M184.54,146.94c0-2.58-1.53-4.87-2.27-7.31-3.22-10.48-6.61-20.91-9.92-31.37-.15-.34-.18-.73-.07-1.09,1.06-2.28.67-4.68.67-7.07,0-30.64.02-61.29.05-91.93,0-3.59-1.27-6.21-4.59-7.68-1.25-.43-2.59-.58-3.9-.44H19.62c-3.35,0-5.81,1.23-7.32,4.27-.44.98-.63,2.05-.57,3.12v96.27c1.63,4.84-.94,9.01-2.25,13.34-2.52,8.53-5.1,17.05-8.07,25.44-2.02,5.69-1.41,11.36-.94,17.07.25,2.95,3.13,5.26,6.11,5.48,1.07.08,2.13.06,3.2.06h164.49c3.21,0,6.23-.17,8.78-2.38.08-.06.15-.13.21-.22,2.16-5,1.23-10.35,1.28-15.57ZM21.46,7.33c23.67.06,47.34.08,71.02.05h70.64q2.48,0,2.48,2.45v91.35q0,2.68-2.68,2.68H21.61c-2.56,0-2.57,0-2.57-2.59V9.73c-.02-1.98.55-2.4,2.42-2.4ZM174.98,157.95H9.6c-1.81,0-2.54-.53-2.33-2.36.21-1.83-.71-3.95.35-5.11,1.06-1.16,3.45-.45,5.23-.45h161.8q2.7,0,2.7,2.61c-.06,1-.06,2.01,0,3.01.27,1.89-.61,2.3-2.35,2.29h-.02Z"/>
      <path class="cls-1" d="M70.77,41.27v3.3l-24.67,12.61,24.67,12.73v3.35l-28.4-14.75v-2.45l28.4-14.79Z"/>
      <path class="cls-1" d="M73.11,77.06l-33.08-17.18v-5.29l33.08-17.19v8.59l-21.89,11.19,21.89,11.3v8.57Z"/>
      <path class="cls-1" d="M107.86,29.94l-28.89,56.68h-3l28.89-56.68h3.01Z"/>
      <path class="cls-1" d="M80.4,88.96h-8.26l31.27-61.36h8.26l-31.27,61.36Z"/>
      <path class="cls-1" d="M113.97,73.26v-3.3l24.65-12.61-24.67-12.73v-3.3l28.41,14.7v2.45l-28.39,14.8Z"/>
      <path class="cls-1" d="M111.63,77.06v-8.58l21.89-11.19-21.89-11.3v-8.58l33.08,17.19v5.29l-33.08,17.18Z"/>
    </g>
    <g>
      <g>
        <path class="cls-1" d="M217.37,26.5h20.52c6.07,0,10.75,1.81,13.75,4.81,2.3,2.3,3.7,5.51,3.7,9.07v.14c0,8.16-6.14,12.84-14.31,13.96l16.12,20.87h-4.61l-15.56-20.24h-15.98v20.24h-3.63V26.5ZM237.46,51.83c8.16,0,14.24-4.19,14.24-11.17v-.14c0-6.63-5.09-10.68-14.03-10.68h-16.68v21.98h16.47Z"/>
        <path class="cls-1" d="M267.82,26.5h34.75v3.35h-31.12v19.19h27.98v3.35h-27.98v19.61h31.47v3.35h-35.1V26.5Z"/>
        <path class="cls-1" d="M312.42,51.07v-.14c0-13.82,10.33-25.26,24.42-25.26,8.65,0,13.96,3.14,18.98,7.82l-2.58,2.65c-4.26-4.12-9.14-7.19-16.47-7.19-11.72,0-20.59,9.56-20.59,21.84v.14c0,12.28,9,21.98,20.66,21.98,7.05,0,11.86-2.65,16.82-7.61l2.44,2.37c-5.23,5.02-10.75,8.51-19.4,8.51-14.03,0-24.28-11.1-24.28-25.12Z"/>
        <path class="cls-1" d="M366.43,26.5h20.52c6.07,0,10.75,1.81,13.75,4.81,2.3,2.3,3.7,5.51,3.7,9.07v.14c0,8.16-6.14,12.84-14.31,13.96l16.12,20.87h-4.61l-15.56-20.24h-15.98v20.24h-3.63V26.5ZM386.53,51.83c8.16,0,14.24-4.19,14.24-11.17v-.14c0-6.63-5.09-10.68-14.03-10.68h-16.68v21.98h16.47Z"/>
        <path class="cls-1" d="M416.12,55.04v-28.54h3.63v28.19c0,11.65,6.14,18.14,16.54,18.14,9.84,0,16.26-6,16.26-17.79v-28.54h3.63v28.12c0,13.96-8.16,21.49-20.03,21.49s-20.03-7.4-20.03-21.07Z"/>
        <path class="cls-1" d="M470.42,26.5h3.63v48.85h-3.63V26.5Z"/>
        <path class="cls-1" d="M502.24,29.85h-17.03v-3.35h37.68v3.35h-17.03v45.5h-3.63V29.85Z"/>
      </g>
      <g>
        <path class="cls-1" d="M217.37,113.57v-.14c0-14.58,11.15-26.01,26.29-26.01,10.15,0,16.86,4.29,21.22,10.36l-10.43,8.07c-2.86-3.5-6.07-5.86-10.93-5.86-7,0-11.93,6-11.93,13.29v.14c0,7.5,4.93,13.36,11.93,13.36,5.22,0,8.22-2.43,11.29-6.07l10.43,7.43c-4.79,6.5-11.07,11.29-22.08,11.29-14.29,0-25.79-10.93-25.79-25.86Z"/>
        <path class="cls-1" d="M268.17,113.57v-.14c0-14.36,11.57-26.01,27.01-26.01s26.86,11.57,26.86,25.86v.14c0,14.36-11.57,26.01-27.01,26.01s-26.86-11.57-26.86-25.86ZM307.82,113.57v-.14c0-7.29-5.14-13.5-12.79-13.5s-12.72,6.14-12.72,13.36v.14c0,7.14,5.22,13.5,12.86,13.5s12.65-6.14,12.65-13.36Z"/>
        <path class="cls-1" d="M329.19,88.42h19.36c17.79,0,28.15,10.22,28.15,24.72v.14c0,14.5-10.5,25.15-28.44,25.15h-19.08v-50.01ZM343.05,100.64v25.51h5.64c8.36,0,13.86-4.57,13.86-12.65v-.14c0-8.07-5.5-12.72-13.86-12.72h-5.64Z"/>
        <path class="cls-1" d="M383.92,88.42h40.23v11.72h-26.51v7.65h24.01v10.93h-24.01v7.93h26.86v11.79h-40.58v-50.01Z"/>
        <path class="cls-1" d="M431.65,88.42h23.65c7.72,0,12.93,2,16.29,5.36,2.93,2.93,4.43,6.86,4.43,11.65v.14c0,7.72-4,12.79-10.29,15.43l11.93,17.43h-15.93l-10.07-15.15h-6.14v15.15h-13.86v-50.01ZM454.73,112.42c4.64,0,7.43-2.29,7.43-5.93v-.14c0-4-2.93-6-7.5-6h-9.15v12.07h9.22Z"/>
        <path class="cls-1" d="M479.24,131l7.72-9.22c5.07,4,10.5,6,16.22,6,3.79,0,5.79-1.21,5.79-3.43v-.14c0-2.14-1.64-3.14-8.5-4.86-10.57-2.43-18.86-5.36-18.86-15.65v-.14c0-9.36,7.36-16,19.36-16,8.57,0,15.15,2.29,20.58,6.64l-6.93,9.79c-4.57-3.36-9.5-4.93-14-4.93-3.36,0-5,1.29-5,3.22v.14c0,2.21,1.71,3.36,8.72,4.86,11.43,2.5,18.58,6.22,18.58,15.58v.14c0,10.22-8.07,16.29-20.22,16.29-8.93,0-17.15-2.79-23.44-8.29Z"/>
      </g>
    </g>
  </g>
</svg>
